<?xml version="1.0" encoding="utf-8"?>
<!DOCTYPE svg PUBLIC "-//W3C//DTD SVG 1.1//EN" "http://www.w3.org/Graphics/SVG/1.1/DTD/svg11.dtd">
<svg version="1.1" id="Calque_1" xmlns="http://www.w3.org/2000/svg" xmlns:xlink="http://www.w3.org/1999/xlink" x="0px" y="0px"
	 width="900px" height="900px" viewBox="99.156 82.361 900 900" enable-background="new 99.156 82.361 900 900"
	 xml:space="preserve">
<g id="Calque_1_1_" display="none">
	
		<image display="inline" overflow="visible" enable-background="new    " width="1000" height="1000" xlink:href="logo.png"  transform="matrix(0.9999 0 0 0.9999 1 0)">
	</image>
</g>
<g id="Calque_4" display="none">
	<rect x="4" display="inline" fill="#D1D1D1" width="999.875" height="999.875"/>
</g>
<g id="Calque_10">
	<path fill="#FFFFFF" d="M754.093,495.1c-104.716,0-189.907-85.192-189.907-189.908s85.191-189.907,189.907-189.907
		c3.389,0,6.899,0.097,10.438,0.289l7.646,0.415L943.3,287.147l0.414,7.646c0.189,3.52,0.286,7.018,0.286,10.399
		C944.001,409.907,858.809,495.1,754.093,495.1z"/>
	<path fill="#FDCB31" d="M622.447,278.544c-3.098-0.168-6.215-0.26-9.354-0.26c-93.836,0-169.907,76.07-169.907,169.908
		s76.071,169.908,169.907,169.908c93.837,0,169.908-76.07,169.908-169.908c0-3.127-0.092-6.233-0.259-9.319L622.447,278.544z"/>
</g>
<g id="Calque_7">
	<path fill="#FDCB31" d="M763.447,135.544c-3.098-0.168-6.215-0.26-9.354-0.26c-93.836,0-169.907,76.07-169.907,169.908
		s76.071,169.908,169.907,169.908c93.837,0,169.908-76.07,169.908-169.908c0-3.127-0.092-6.233-0.259-9.319L763.447,135.544z"/>
	<g id="Calque_9">
		<rect x="369.186" y="393.815" fill="none" width="398" height="202"/>
		<rect x="663.186" y="227.113" fill="none" width="227" height="137"/>
		<text transform="matrix(1 0 0 1 663.1855 328.6416)" fill="#FFFFFF" font-family="'Comfortaa-Bold'" font-size="130">&lt;/&gt;</text>
	</g>
	<path fill="#F8DE8F" d="M763.705,135.284c4.672,86.405,73.896,155.64,160.297,160.329L763.705,135.284z"/>
</g>
<g id="Calque_3">
	<path fill="#FFFFFF" d="M921.186,531.253c0-95.667-77.832-173.5-173.5-173.5c-5.626,0-11.256,0.273-16.856,0.816
		c-13.108-44.821-39.634-85.211-75.977-115.203c-41.848-34.533-94.822-53.551-149.167-53.551
		c-61.97,0-120.408,23.949-164.548,67.435c-39.778,39.188-63.876,90.215-68.935,145.231c-32.607,4.93-62.633,20.298-85.982,44.301
		c-27.752,28.529-43.035,66.164-43.035,105.971c0,80.453,62.832,146.495,142,151.662v38.4c0,21.154,0,47,0,47s0,26.846,0,48
		c0,28.673,23.327,52,52,52c16.644,0,31.476-7.869,41-20.073v26.073c0,28.673,23.327,52,52,52s52-23.327,52-52v-31.992
		c9.006,15.522,25.798,25.992,45,25.992c15.864,0,30.278-6.507,39.861-17.62c-2.203,3.786-4.861,10.971-4.861,23.62
		c0,28.673,23.327,52,52,52s52-23.327,52-52c0-10.775-2.361-20.486-7.998-28.797l-0.001-0.004
		c9.364,13.752,25.143,22.801,42.999,22.801c28.673,0,52-23.327,52-52c0-21.154,0-48.5,0-48.5s0-25.346,0-46.5v-38.158
		C846.317,701.741,921.186,625.08,921.186,531.253z M389.186,704.753L389.186,704.753L389.186,704.753L389.186,704.753z
		 M477.397,710.885L477.397,710.885L477.397,710.885L477.397,710.885L477.397,710.885L477.397,710.885z M576.555,704.753
		L576.555,704.753L576.555,704.753L576.555,704.753L576.555,704.753z M651.262,706.161L651.262,706.161L651.262,706.161
		C651.262,706.161,653.338,707.569,651.262,706.161z"/>
</g>
<g id="Calque_8">
	<path fill="#91AA9D" d="M559.186,837.815c0,17.673-14.327,32-32,32l0,0c-17.674,0-32-14.327-32-32v-52c0-17.673,14.326-32,32-32
		l0,0c17.673,0,32,14.327,32,32V837.815z"/>
	<path fill="#91AA9D" d="M646.186,799.815c0,17.673-14.327,32-32,32l0,0c-17.674,0-32-14.327-32-32v-52c0-17.673,14.326-32,32-32
		l0,0c17.673,0,32,14.327,32,32V799.815z"/>
	<path fill="#91AA9D" d="M462.186,895.815c0,17.673-14.327,32-32,32l0,0c-17.674,0-32-14.327-32-32v-52c0-17.673,14.326-32,32-32
		l0,0c17.673,0,32,14.327,32,32V895.815z"/>
	<path fill="#91AA9D" d="M733.186,742.815c0,17.673-14.327,32-32,32l0,0c-17.674,0-32-14.327-32-32v-52c0-17.673,14.326-32,32-32
		l0,0c17.673,0,32,14.327,32,32V742.815z"/>
	<path fill="#91AA9D" d="M369.186,742.815c0,17.673-14.327,32-32,32l0,0c-17.674,0-32-14.327-32-32v-52c0-17.673,14.326-32,32-32
		l0,0c17.673,0,32,14.327,32,32V742.815z"/>
	<path fill="#91AA9D" d="M337.186,805.815c-17.673,0-32,14.327-32,32s14.327,32,32,32s32-14.327,32-32
		S354.858,805.815,337.186,805.815z M337.186,841.815c-2.209,0-4-1.791-4-4s1.791-4,4-4s4,1.791,4,4
		S339.395,841.815,337.186,841.815z"/>
	<path fill="#91AA9D" d="M430.186,716.815c-17.673,0-32,14.327-32,32s14.327,32,32,32s32-14.327,32-32
		S447.858,716.815,430.186,716.815z M430.186,752.815c-2.209,0-4-1.791-4-4s1.791-4,4-4s4,1.791,4,4
		S432.395,752.815,430.186,752.815z"/>
	<path fill="#91AA9D" d="M614.186,863.815c-17.674,0-32,14.327-32,32s14.326,32,32,32s32-14.327,32-32
		S631.859,863.815,614.186,863.815z M614.186,899.815c-2.209,0-4-1.791-4-4s1.791-4,4-4s4,1.791,4,4
		S616.395,899.815,614.186,899.815z"/>
	<path fill="#91AA9D" d="M701.186,805.815c-17.674,0-32,14.327-32,32s14.326,32,32,32s32-14.327,32-32
		S718.859,805.815,701.186,805.815z M701.186,841.815c-2.209,0-4-1.791-4-4s1.791-4,4-4s4,1.791,4,4
		S703.395,841.815,701.186,841.815z"/>
	<path fill="#91AA9D" d="M526.186,659.815c-17.674,0-32,14.327-32,32s14.326,32,32,32s32-14.327,32-32
		S543.859,659.815,526.186,659.815z M526.186,695.815c-2.209,0-4-1.791-4-4s1.791-4,4-4s4,1.791,4,4
		S528.395,695.815,526.186,695.815z"/>
</g>
<g id="Calque_11">
	<rect x="285.186" y="666.815" fill="#FFFFFF" width="468.908" height="37.6"/>
</g>
<g id="Calque_5">
	<path fill="#3E606F" d="M747.686,377.753c-10.926,0-21.581,1.15-31.86,3.32c-20.007-97.738-106.487-171.258-210.14-171.258
		c-117.296,0-212.585,94.151-214.456,211.001c-71.07,2.093-128.044,60.359-128.044,131.937c0,72.901,59.099,132,132,132h452.5
		c84.775,0,153.5-68.725,153.5-153.5S832.461,377.753,747.686,377.753z"/>
</g>
</svg>
